# xmcd CD database file
#
# Track frame offsets:
#	150
#	14315
#	35930
#	50095
#
# Disc length: 956 seconds
#
# Revision: 2
# Processed by: cddbd v1.5.2PL0 Copyright (c) Steve Scherf et al.
# Submitted via: CDex 1.70beta2
#
DISCID=3303ba04
DTITLE=松元環季 - くっつけはっつけワンダーランド
DYEAR=2010
DGENRE=Anime
TTITLE0=くっつけはっつけワンダーランド
TTITLE1=星の空
TTITLE2=くっつけはっつけワンダーランド [instrumental]
TTITLE3=星の空 [instrumental]
EXTD=YEAR: 2010
EXTT0=
EXTT1=
EXTT2=
EXTT3=
PLAYORDER=
